<svg xmlns="http://www.w3.org/2000/svg" viewBox="0 0 760 190" role="img" aria-labelledby="title desc">
  <title id="title">LLerNote</title>
  <desc id="desc">LLerNote logo using the app's event-list identity and penlight gradient wordmark.</desc>
  <defs>
    <linearGradient id="brand" x1="158" x2="522" y1="82" y2="82" gradientUnits="userSpaceOnUse">
      <stop offset=".1" stop-color="#e4007f"/>
      <stop offset=".45" stop-color="#ff7a00"/>
      <stop offset=".9" stop-color="#00a0e0"/>
    </linearGradient>
    <linearGradient id="lines" x1="42" x2="118" y1="52" y2="136" gradientUnits="userSpaceOnUse">
      <stop offset=".1" stop-color="#e4007f"/>
      <stop offset=".45" stop-color="#ff7a00"/>
      <stop offset=".9" stop-color="#00a0e0"/>
    </linearGradient>
    <radialGradient id="panel" cx="50%" cy="24%" r="82%">
      <stop offset="0" stop-color="#3c1223"/>
      <stop offset=".58" stop-color="#211217"/>
      <stop offset="1" stop-color="#151315"/>
    </radialGradient>
  </defs>
  <g>
    <rect x="34" y="42" width="100" height="106" rx="20" fill="url(#panel)" stroke="#594653" stroke-width="2"/>
    <path fill="none" stroke="url(#lines)" stroke-linecap="round" stroke-width="8" d="M69 72h43M69 95h31M69 118h48"/>
    <circle cx="54" cy="72" r="6" fill="#e4007f"/>
    <circle cx="54" cy="95" r="6" fill="#ff7a00"/>
    <circle cx="54" cy="118" r="6" fill="#00a0e0"/>
  </g>
  <g fill="url(#brand)">
    <path d="M169.438 123.0Q163.762 123.0 163.762 117.324V68.476Q163.762 62.800000000000004 169.352 62.800000000000004Q174.942 62.800000000000004 174.942 68.476V112.68H200.14Q205.816 112.68 205.816 117.84Q205.816 123.0 200.14 123.0Z"/>
    <path d="M220.13 123.0Q214.454 123.0 214.454 117.324V68.476Q214.454 62.800000000000004 220.044 62.800000000000004Q225.63400000000001 62.800000000000004 225.63400000000001 68.476V112.68H250.832Q256.508 112.68 256.508 117.84Q256.508 123.0 250.832 123.0Z"/>
    <path d="M282.69 123.946Q273.574 123.946 267.898 118.571Q262.22200000000004 113.196 262.22200000000004 102.274Q262.22200000000004 95.48 264.759 90.62100000000001Q267.296 85.762 271.76800000000003 83.13900000000001Q276.24 80.516 282.088 80.516Q287.93600000000004 80.516 292.021 83.18200000000002Q296.106 85.84800000000001 298.256 90.019Q300.406 94.19 300.406 98.834Q300.406 102.532 298.944 103.564Q297.482 104.596 294.73 104.596H272.886Q273.31600000000003 110.358 276.02500000000003 112.465Q278.73400000000004 114.572 282.862 114.572Q287.42 114.572 290.086 111.906Q292.064 109.928 293.741 109.326Q295.418 108.724 297.31 110.1Q299.288 111.476 299.50300000000004 113.583Q299.718 115.69 297.654 117.926Q294.73 121.108 290.98900000000003 122.527Q287.248 123.946 282.69 123.946ZM273.31600000000003 96.34H289.742Q288.194 88.944 281.916 88.944Q278.476 88.944 276.326 90.664Q274.176 92.384 273.31600000000003 96.34Z"/>
    <path d="M316.01000000000005 123.0Q310.59200000000004 123.0 310.59200000000004 117.324V87.224Q310.59200000000004 81.548 316.26800000000003 81.548Q318.07400000000007 81.548 319.53600000000006 82.45100000000001Q320.99800000000005 83.35400000000001 320.99800000000005 85.84800000000001V87.138Q322.54600000000005 84.128 325.72800000000007 82.322Q328.91 80.516 332.43600000000004 80.516Q335.18800000000005 80.516 336.65000000000003 82.19300000000001Q338.112 83.87 338.112 86.45Q338.112 88.858 336.822 90.019Q335.53200000000004 91.18 334.07000000000005 91.00800000000001Q333.38200000000006 90.922 332.56500000000005 90.879Q331.74800000000005 90.83600000000001 330.802 90.83600000000001Q326.84600000000006 90.83600000000001 324.13700000000006 93.373Q321.42800000000005 95.91 321.42800000000005 100.812V117.324Q321.42800000000005 123.0 316.01000000000005 123.0Z"/>
    <path d="M351.394 123.0Q345.80400000000003 123.0 345.80400000000003 117.324V68.476Q345.80400000000003 62.800000000000004 351.394 62.800000000000004H352.598Q356.898 62.800000000000004 359.39200000000005 66.498L383.90200000000004 103.47800000000001V68.476Q383.90200000000004 62.800000000000004 389.57800000000003 62.800000000000004Q395.168 62.800000000000004 395.168 68.476V117.324Q395.168 123.0 389.836 123.0H388.89000000000004Q384.418 123.0 382.096 119.302L356.98400000000004 80.946V117.324Q356.98400000000004 123.0 351.394 123.0Z"/>
    <path d="M425.39200000000005 123.946Q419.63000000000005 123.946 415.02900000000005 121.28Q410.42800000000005 118.614 407.80500000000006 113.712Q405.1820000000001 108.81 405.1820000000001 102.274Q405.1820000000001 95.652 407.80500000000006 90.793Q410.42800000000005 85.934 415.02900000000005 83.225Q419.63000000000005 80.516 425.39200000000005 80.516Q431.24000000000007 80.516 435.79800000000006 83.225Q440.35600000000005 85.934 442.97900000000004 90.793Q445.60200000000003 95.652 445.60200000000003 102.274Q445.60200000000003 108.81 442.97900000000004 113.712Q440.35600000000005 118.614 435.79800000000006 121.28Q431.24000000000007 123.946 425.39200000000005 123.946ZM425.39200000000005 114.142Q429.52000000000004 114.142 432.14300000000003 111.089Q434.7660000000001 108.036 434.7660000000001 102.274Q434.7660000000001 96.426 432.14300000000003 93.37299999999999Q429.52000000000004 90.32 425.39200000000005 90.32Q421.26400000000007 90.32 418.7270000000001 93.37299999999999Q416.19000000000005 96.426 416.19000000000005 102.274Q416.19000000000005 108.036 418.7270000000001 111.089Q421.26400000000007 114.142 425.39200000000005 114.142Z"/>
    <path d="M472.12800000000004 123.946Q468.00000000000006 123.946 465.119 123.043Q462.23800000000006 122.14 460.73300000000006 119.646Q459.22800000000007 117.152 459.22800000000007 112.594V90.83600000000001H457.16400000000004Q451.48800000000006 90.83600000000001 451.48800000000006 86.19200000000001Q451.48800000000006 83.956 452.69200000000006 82.75200000000001Q453.8960000000001 81.548 457.0780000000001 81.548H459.22800000000007V72.862Q459.22800000000007 70.11000000000001 460.64700000000005 68.64800000000001Q462.0660000000001 67.186 464.6460000000001 67.186Q469.97800000000007 67.186 469.97800000000007 72.862V81.548H475.4820000000001Q481.1580000000001 81.548 481.1580000000001 86.19200000000001Q481.1580000000001 90.83600000000001 475.56800000000004 90.83600000000001H469.97800000000007V109.756Q469.97800000000007 112.422 471.31100000000004 113.368Q472.64400000000006 114.314 475.1380000000001 114.314Q478.06200000000007 114.314 479.61000000000007 115.131Q481.1580000000001 115.94800000000001 481.1580000000001 118.786Q481.1580000000001 121.108 479.86800000000005 122.226Q478.5780000000001 123.344 476.51400000000007 123.645Q474.45000000000005 123.946 472.12800000000004 123.946Z"/>
    <path d="M508.11400000000003 123.946Q498.99800000000005 123.946 493.32200000000006 118.571Q487.6460000000001 113.196 487.6460000000001 102.274Q487.6460000000001 95.48 490.18300000000005 90.62100000000001Q492.72 85.762 497.192 83.13900000000001Q501.66400000000004 80.516 507.51200000000006 80.516Q513.36 80.516 517.445 83.18200000000002Q521.5300000000001 85.84800000000001 523.6800000000001 90.019Q525.83 94.19 525.83 98.834Q525.83 102.532 524.368 103.564Q522.9060000000001 104.596 520.154 104.596H498.31000000000006Q498.74000000000007 110.358 501.44900000000007 112.465Q504.1580000000001 114.572 508.28600000000006 114.572Q512.844 114.572 515.51 111.906Q517.488 109.928 519.1650000000001 109.326Q520.8420000000001 108.724 522.734 110.1Q524.712 111.476 524.927 113.583Q525.142 115.69 523.0780000000001 117.926Q520.154 121.108 516.413 122.527Q512.672 123.946 508.11400000000003 123.946ZM498.74000000000007 96.34H515.166Q513.618 88.944 507.34000000000003 88.944Q503.90000000000003 88.944 501.75 90.664Q499.6 92.384 498.74000000000007 96.34Z"/>
  </g>
</svg>
